<?xml version="1.0" encoding="UTF-8"?>
<svg id="Calque_2" data-name="Calque 2" xmlns="http://www.w3.org/2000/svg" width="302.4" height="157.4" xmlns:xlink="http://www.w3.org/1999/xlink" viewBox="0 0 302.4 157.4">
  <defs>
    <style>
      .cls-1 {
        fill: url(#Dégradé_sans_nom_247-5);
      }

      .cls-2 {
        fill: url(#Dégradé_sans_nom_247-7);
      }

      .cls-3 {
        fill: url(#Dégradé_sans_nom_247-6);
      }

      .cls-4 {
        fill: url(#Dégradé_sans_nom_299-6);
      }

      .cls-5 {
        fill: url(#Dégradé_sans_nom_299-14);
      }

      .cls-6 {
        fill: url(#Dégradé_sans_nom_299-7);
      }

      .cls-7 {
        fill: url(#Dégradé_sans_nom_247-2);
      }

      .cls-8 {
        fill: url(#Dégradé_sans_nom_247-4);
      }

      .cls-9 {
        fill: url(#Dégradé_sans_nom_299-8);
      }

      .cls-10 {
        fill: url(#Dégradé_sans_nom_299-9);
      }

      .cls-11 {
        fill: #6fc210;
      }

      .cls-12 {
        fill: url(#Dégradé_sans_nom_299-12);
      }

      .cls-13 {
        fill: url(#Dégradé_sans_nom_247-8);
      }

      .cls-14 {
        fill: url(#Dégradé_sans_nom_299-2);
      }

      .cls-15 {
        fill: url(#Dégradé_sans_nom_247);
      }

      .cls-16 {
        fill: url(#Dégradé_sans_nom_299-13);
      }

      .cls-17 {
        fill: url(#Dégradé_sans_nom_299-5);
      }

      .cls-18 {
        fill: url(#Dégradé_sans_nom_247-3);
      }

      .cls-19 {
        fill: url(#Dégradé_sans_nom_299);
      }

      .cls-20 {
        fill: url(#Dégradé_sans_nom_299-4);
      }

      .cls-21 {
        fill: url(#Dégradé_sans_nom_299-10);
      }

      .cls-22 {
        fill: url(#Dégradé_sans_nom_299-3);
      }

      .cls-23 {
        fill: url(#Dégradé_sans_nom_299-11);
      }
    </style>
    <linearGradient id="Dégradé_sans_nom_247" data-name="Dégradé sans nom 247" x1="0" y1="78.7" x2="153.27" y2="78.7" gradientUnits="userSpaceOnUse">
      <stop offset="0" stop-color="#e4ff1d"/>
      <stop offset=".34" stop-color="#96e313"/>
      <stop offset=".97" stop-color="#00af00"/>
    </linearGradient>
    <linearGradient id="Dégradé_sans_nom_299" data-name="Dégradé sans nom 299" x1="19.62" y1="83.85" x2="129.12" y2="83.85" gradientUnits="userSpaceOnUse">
      <stop offset="0" stop-color="#e4ff1d"/>
      <stop offset="0" stop-color="#96e313"/>
      <stop offset="0" stop-color="#00af00"/>
    </linearGradient>
    <linearGradient id="Dégradé_sans_nom_299-2" data-name="Dégradé sans nom 299" x1="228.64" y1="49.83" x2="243.89" y2="49.83" xlink:href="#Dégradé_sans_nom_299"/>
    <linearGradient id="Dégradé_sans_nom_299-3" data-name="Dégradé sans nom 299" x1="33.41" y1="71.48" x2="60.12" y2="71.48" xlink:href="#Dégradé_sans_nom_299"/>
    <linearGradient id="Dégradé_sans_nom_299-4" data-name="Dégradé sans nom 299" x1="58.5" y1="71.48" x2="84.51" y2="71.48" xlink:href="#Dégradé_sans_nom_299"/>
    <linearGradient id="Dégradé_sans_nom_299-5" data-name="Dégradé sans nom 299" x1="86.72" y1="71.48" x2="108.09" y2="71.48" xlink:href="#Dégradé_sans_nom_299"/>
    <linearGradient id="Dégradé_sans_nom_299-6" data-name="Dégradé sans nom 299" x1="108.54" y1="71.48" x2="134.25" y2="71.48" xlink:href="#Dégradé_sans_nom_299"/>
    <linearGradient id="Dégradé_sans_nom_299-7" data-name="Dégradé sans nom 299" x1="133.74" y1="71.48" x2="154.22" y2="71.48" xlink:href="#Dégradé_sans_nom_299"/>
    <linearGradient id="Dégradé_sans_nom_299-8" data-name="Dégradé sans nom 299" x1="153.26" y1="71.48" x2="178.98" y2="71.48" xlink:href="#Dégradé_sans_nom_299"/>
    <linearGradient id="Dégradé_sans_nom_299-9" data-name="Dégradé sans nom 299" x1="181" y1="71.63" x2="203.26" y2="71.63" xlink:href="#Dégradé_sans_nom_299"/>
    <linearGradient id="Dégradé_sans_nom_299-10" data-name="Dégradé sans nom 299" x1="205.65" y1="71.48" x2="227.02" y2="71.48" xlink:href="#Dégradé_sans_nom_299"/>
    <linearGradient id="Dégradé_sans_nom_299-11" data-name="Dégradé sans nom 299" x1="228.68" y1="71.48" x2="234.06" y2="71.48" xlink:href="#Dégradé_sans_nom_299"/>
    <linearGradient id="Dégradé_sans_nom_299-12" data-name="Dégradé sans nom 299" x1="236.27" y1="71.48" x2="256.46" y2="71.48" xlink:href="#Dégradé_sans_nom_299"/>
    <linearGradient id="Dégradé_sans_nom_299-13" data-name="Dégradé sans nom 299" x1="258.67" y1="71.48" x2="282.5" y2="71.48" xlink:href="#Dégradé_sans_nom_299"/>
    <linearGradient id="Dégradé_sans_nom_299-14" data-name="Dégradé sans nom 299" x1="285.08" y1="71.48" x2="302.4" y2="71.48" xlink:href="#Dégradé_sans_nom_299"/>
    <linearGradient id="Dégradé_sans_nom_247-2" data-name="Dégradé sans nom 247" x1="138.27" y1="109.21" x2="138.43" y2="109.21" xlink:href="#Dégradé_sans_nom_247"/>
    <linearGradient id="Dégradé_sans_nom_247-3" data-name="Dégradé sans nom 247" x1="115.04" y1="130.23" x2="118.63" y2="130.23" xlink:href="#Dégradé_sans_nom_247"/>
    <linearGradient id="Dégradé_sans_nom_247-4" data-name="Dégradé sans nom 247" x1="118.63" y1="125.87" x2="127.5" y2="125.87" xlink:href="#Dégradé_sans_nom_247"/>
    <linearGradient id="Dégradé_sans_nom_247-5" data-name="Dégradé sans nom 247" x1="52.91" y1="116.05" x2="188.72" y2="116.05" xlink:href="#Dégradé_sans_nom_247"/>
    <linearGradient id="Dégradé_sans_nom_247-6" data-name="Dégradé sans nom 247" x1="76.89" y1="118.17" x2="184.67" y2="118.17" xlink:href="#Dégradé_sans_nom_247"/>
    <linearGradient id="Dégradé_sans_nom_247-7" data-name="Dégradé sans nom 247" x1="138.27" y1="109.21" x2="138.43" y2="109.21" xlink:href="#Dégradé_sans_nom_247"/>
    <linearGradient id="Dégradé_sans_nom_247-8" data-name="Dégradé sans nom 247" x1="35.61" y1="107.51" x2="193.39" y2="107.51" xlink:href="#Dégradé_sans_nom_247"/>
  </defs>
  <g id="Calque_1-2" data-name="Calque 1">
    <g>
      <path class="cls-15" d="m149.58,112.94c-13.49,27.92-42.9,46.35-75.76,44.31C30.45,154.56-2.54,117.21.15,73.83,2.85,30.45,40.19-2.54,83.58.15c32.85,2.04,59.75,23.96,69.69,53.32-9.73-24.98-33.27-43.35-61.79-45.12C52.34,5.92,18.64,35.68,16.21,74.82s27.33,72.83,66.47,75.26c28.52,1.77,54.16-13.56,66.9-37.15Z"/>
      <path class="cls-19" d="m129.12,129.64c-11.58,9.71-26.52,15.56-42.82,15.56-36.83,0-66.68-29.86-66.68-66.68,0-23.49,12.14-44.14,30.49-56.02-15.55,12.19-25.54,31.14-25.54,52.43,0,36.77,29.81,66.58,66.59,66.58,14.11,0,27.2-4.39,37.97-11.88Z"/>
      <path class="cls-14" d="m239.12,45.65c-3.26.75-4.42.46-5.87,1.11-1.54.69-3.46,2.45-4.6,7.4,1.01-.3,2.11-.69,3.27-1.2,1.92-.85,3.51-1.81,4.78-2.71-1.24,1.1-2.77,2.28-4.6,3.39-.93.56-1.83,1.04-2.69,1.46,1,.29,3.12.74,5.54,0,1.91-.58,3.11-1.63,3.96-2.38,3.17-2.83,4.45-6.42,5-8.55-1.1.43-2.73,1.01-4.77,1.48Z"/>
      <g>
        <path class="cls-22" d="m52.68,79.81h-11.79l-1.95,4.57h-5.53l10.57-25.79h5.56l-6.82,16.62h8.07l-3.65-8.84,4.16-3.57,8.81,21.59h-5.53l-1.92-4.57Z"/>
        <path class="cls-20" d="m84.48,70.38c.02.37.04.74.04,1.11,0,1.82-.33,3.53-.98,5.14-.65,1.61-1.55,3.01-2.69,4.2-1.14,1.19-2.5,2.13-4.07,2.82-1.57.69-3.27,1.03-5.08,1.03s-3.53-.34-5.14-1.03c-1.61-.69-3.01-1.63-4.2-2.82-1.19-1.19-2.13-2.59-2.82-4.2-.69-1.61-1.03-3.32-1.03-5.14s.34-3.53,1.03-5.14c.69-1.61,1.63-3.01,2.82-4.2s2.59-2.13,4.2-2.82c1.61-.69,3.32-1.03,5.14-1.03,2.38,0,4.55.57,6.5,1.71s3.52,2.65,4.7,4.51l-4.31,2.76c-.66-1.33-1.6-2.39-2.82-3.19-1.22-.8-2.57-1.2-4.07-1.2-1.11,0-2.14.23-3.09.68-.96.45-1.79,1.07-2.51,1.84-.71.77-1.28,1.68-1.69,2.73-.42,1.04-.63,2.16-.63,3.33s.21,2.29.63,3.33c.42,1.04.98,1.95,1.69,2.73.71.77,1.55,1.39,2.51,1.84.96.45,1.99.68,3.09.68.88,0,1.72-.15,2.51-.44.79-.29,1.49-.71,2.1-1.25.61-.54,1.15-1.17,1.6-1.9.45-.72.79-1.53,1.01-2.41h-7l-2.36-4.79h14.81c.05.37.09.74.11,1.11Z"/>
        <path class="cls-17" d="m102.24,75.91c-.59.27-1.14.47-1.64.59-.5.12-1.12.2-1.84.24-.72.04-1.62.05-2.69.04-1.07-.01-2.45-.02-4.14-.02v7.63h-5.19v-25.79h11.68c1.25,0,2.43.24,3.52.72,1.09.48,2.05,1.13,2.87,1.95.82.82,1.47,1.79,1.95,2.91.48,1.12.72,2.3.72,3.56,0,1.84-.49,3.49-1.46,4.94-.97,1.45-2.23,2.53-3.78,3.24Zm-10.32-4.31h6.48c1.11,0,2.04-.39,2.8-1.16.76-.77,1.14-1.81,1.14-3.11,0-.54-.1-1.06-.31-1.57-.21-.5-.49-.95-.85-1.34-.36-.39-.77-.71-1.25-.94-.48-.23-.99-.35-1.53-.35h-6.48v8.47Zm16.17,12.78h-6.56l-3.94-4.86,4.31-2.8,6.19,7.66Z"/>
        <path class="cls-4" d="m121.39,58.26c1.82,0,3.51.35,5.08,1.05,1.57.7,2.93,1.65,4.09,2.84,1.15,1.19,2.06,2.59,2.71,4.2.65,1.61.98,3.32.98,5.14,0,1.55-.23,3.02-.7,4.42-.47,1.4-1.13,2.67-1.99,3.79-.86,1.13-1.89,2.09-3.08,2.89-1.19.8-2.5,1.37-3.92,1.71l-2.58-4.38c1.03-.07,1.97-.35,2.82-.83.85-.48,1.58-1.09,2.19-1.84.61-.75,1.09-1.62,1.44-2.62.34-.99.52-2.04.52-3.15s-.19-2.25-.57-3.28c-.38-1.03-.9-1.93-1.57-2.69-.66-.76-1.46-1.36-2.38-1.81-.92-.44-1.93-.66-3.04-.66s-2.12.22-3.04.66c-.92.44-1.72,1.04-2.39,1.81-.68.76-1.2,1.66-1.58,2.69-.38,1.03-.57,2.12-.57,3.28s.19,2.25.57,3.28c.38,1.03.91,1.93,1.58,2.69.68.76,1.47,1.36,2.39,1.81.92.44,1.93.66,3.04.66v4.79c-1.82,0-3.51-.34-5.08-1.03-1.57-.69-2.94-1.63-4.09-2.84-1.15-1.2-2.06-2.61-2.71-4.22-.65-1.61-.98-3.32-.98-5.14s.33-3.53.98-5.14c.65-1.61,1.55-3.01,2.71-4.2,1.15-1.19,2.52-2.14,4.09-2.84,1.57-.7,3.27-1.05,5.08-1.05Z"/>
        <path class="cls-6" d="m146.63,58.59v25.79h-5.31v-21.29h-7.59v-4.49h12.89Zm.77,0h6.82v4.49h-4.57l-2.25-4.49Z"/>
        <path class="cls-9" d="m166.12,58.26c1.82,0,3.51.35,5.08,1.05,1.57.7,2.93,1.65,4.09,2.84,1.15,1.19,2.06,2.59,2.71,4.2.65,1.61.98,3.32.98,5.14,0,1.55-.23,3.02-.7,4.42-.47,1.4-1.13,2.67-1.99,3.79-.86,1.13-1.89,2.09-3.08,2.89-1.19.8-2.5,1.37-3.92,1.71l-2.58-4.38c1.03-.07,1.97-.35,2.82-.83.85-.48,1.58-1.09,2.19-1.84.61-.75,1.09-1.62,1.44-2.62.34-.99.52-2.04.52-3.15s-.19-2.25-.57-3.28c-.38-1.03-.9-1.93-1.57-2.69-.66-.76-1.46-1.36-2.38-1.81-.92-.44-1.93-.66-3.04-.66s-2.12.22-3.04.66c-.92.44-1.72,1.04-2.39,1.81-.68.76-1.2,1.66-1.58,2.69-.38,1.03-.57,2.12-.57,3.28s.19,2.25.57,3.28c.38,1.03.91,1.93,1.58,2.69.68.76,1.47,1.36,2.39,1.81.92.44,1.93.66,3.04.66v4.79c-1.82,0-3.51-.34-5.08-1.03-1.57-.69-2.94-1.63-4.09-2.84-1.15-1.2-2.06-2.61-2.71-4.22-.65-1.61-.98-3.32-.98-5.14s.33-3.53.98-5.14c.65-1.61,1.55-3.01,2.71-4.2,1.15-1.19,2.52-2.14,4.09-2.84,1.57-.7,3.27-1.05,5.08-1.05Z"/>
        <path class="cls-10" d="m186.24,73.73c0,.88.15,1.71.46,2.49.31.77.73,1.45,1.27,2.03.54.58,1.17,1.04,1.9,1.38.72.34,1.49.52,2.3.52v4.53c-1.55,0-3-.29-4.35-.87-1.35-.58-2.54-1.37-3.56-2.38-1.02-1.01-1.82-2.19-2.39-3.54-.58-1.35-.87-2.8-.87-4.35v-14.96h5.23v15.14Zm17.02-15.14v14.96c0,1.3-.22,2.54-.64,3.7-.43,1.17-1.02,2.22-1.77,3.17-.75.95-1.64,1.76-2.67,2.43-1.03.68-2.15,1.17-3.35,1.49l-2.28-4.24c.76-.05,1.47-.25,2.14-.61.66-.36,1.25-.82,1.75-1.4.5-.58.9-1.24,1.18-1.99.28-.75.42-1.54.42-2.38,0-.02,0-.04-.02-.06-.01-.01-.02-.03-.02-.06,0-.07,0-.09.02-.04.01.05.02,0,.02-.13v-14.87h5.23Z"/>
        <path class="cls-21" d="m221.16,75.91c-.59.27-1.14.47-1.64.59-.5.12-1.12.2-1.84.24-.72.04-1.62.05-2.69.04-1.07-.01-2.45-.02-4.14-.02v7.63h-5.19v-25.79h11.68c1.25,0,2.43.24,3.52.72,1.09.48,2.05,1.13,2.87,1.95.82.82,1.47,1.79,1.95,2.91.48,1.12.72,2.3.72,3.56,0,1.84-.49,3.49-1.46,4.94-.97,1.45-2.23,2.53-3.78,3.24Zm-10.32-4.31h6.48c1.11,0,2.04-.39,2.8-1.16.76-.77,1.14-1.81,1.14-3.11,0-.54-.1-1.06-.31-1.57-.21-.5-.49-.95-.85-1.34-.36-.39-.77-.71-1.25-.94-.48-.23-.99-.35-1.53-.35h-6.48v8.47Zm16.17,12.78h-6.56l-3.94-4.86,4.31-2.8,6.19,7.66Z"/>
        <path class="cls-23" d="m234.06,58.59v25.79h-5.38v-25.79h5.38Z"/>
        <path class="cls-12" d="m248.31,69.31c1.18.32,2.27.68,3.26,1.07.99.39,1.85.87,2.58,1.44.72.57,1.29,1.24,1.69,2.03.41.79.61,1.72.61,2.8v.11c0,1.18-.24,2.26-.72,3.24-.48.98-1.14,1.82-1.99,2.52-.85.7-1.84,1.24-2.98,1.62s-2.39.57-3.74.57c-1.25,0-2.45-.15-3.59-.46-1.14-.3-2.18-.71-3.11-1.21-.93-.5-1.75-1.07-2.45-1.7-.7-.63-1.23-1.29-1.6-1.98l4.31-2.73c.47.52.93.98,1.4,1.38.47.41.96.75,1.47,1.03.52.28,1.08.5,1.69.64.61.15,1.29.22,2.03.22.47,0,.94-.05,1.42-.15.48-.1.91-.26,1.31-.48.39-.22.71-.5.96-.83.25-.33.37-.74.37-1.24,0-.34-.09-.68-.26-1-.17-.32-.47-.63-.88-.94-.42-.31-.98-.6-1.69-.89-.71-.28-1.61-.56-2.69-.83-1.33-.32-2.52-.68-3.57-1.09-1.06-.41-1.95-.9-2.69-1.48s-1.3-1.27-1.69-2.09c-.39-.81-.59-1.77-.59-2.88,0-1.21.23-2.29.68-3.27.45-.97,1.09-1.79,1.9-2.45.81-.66,1.76-1.17,2.86-1.53,1.09-.36,2.27-.54,3.52-.54s2.48.15,3.54.44c1.06.29,2,.67,2.84,1.12.83.45,1.57.97,2.19,1.55.63.58,1.15,1.14,1.57,1.68l-4.24,2.73c-1.06-1.01-2.06-1.71-3-2.12-.95-.41-1.93-.61-2.97-.61-.64,0-1.19.08-1.64.24-.45.16-.83.36-1.12.59-.29.23-.52.5-.68.79-.16.29-.24.58-.24.85,0,.49.13.92.39,1.27.26.36.64.68,1.14.98.5.29,1.13.57,1.88.81.75.25,1.6.49,2.56.74Z"/>
        <path class="cls-16" d="m278.52,58.59h3.98v3.32l-11.9,17.94-6.74-10.13v14.66h-5.19v-25.79h3.98l7.96,11.97,7.92-11.97Zm-1.22,25.79v-13.56l5.19-3.57v17.13h-5.19Z"/>
        <path class="cls-5" d="m302.36,58.59l.04,4.31h-12.12l-.04,17.21h12.12v4.27h-17.28v-25.79h17.28Zm-3.06,15.51h-5.75l-2.39-4.79h8.14v4.79Z"/>
      </g>
      <g>
        <path class="cls-11" d="m221.45,111.38c-2.06,0-4.12-1.77-6.01-2.89-.65.74-1.36,1.15-2.18,1.21l-.38.03c-1.41,0-2.03-.8-2.03-1.65,0-.77.47-1.56,1.24-2.03.44-.24.85-.35,1.27-.35.32,0,.68.06,1.03.18,1.71-4.18,2.71-9.04,4.48-13.43l-.15-.03c-1.3,0-4.07,5.18-4.33,6.3l-.03.38c0,.15.03.24.09.26.15.03.24.15.24.29,0,.09-.06.21-.21.27-.38.12-.85.27-1.33.27-.27,0-.53-.06-.77-.18-.38-.24-.5-.62-.5-1.03,0-.24.03-.5.09-.74.35-1.33,1.41-3.21,2.68-4.65,1.09-1.27,2.33-2.21,3.42-2.3l.53-.03c1.15,0,2.92.29,2.92,1.38,0,.18-.06.35-.15.56-1.74,4.3-2.92,9.57-4.83,13.55,1.89.97,4.18,2.53,6.13,2.53.32,0,.65-.06.94-.15l.09-.03c.15,0,.29.15.29.32l-.06.15c-.68.94-1.36,1.77-2.24,1.8h-.24Zm-7.98-3.83c-.21-.06-.47-.12-.71-.12-.18,0-.35.03-.5.12-.12.06-.21.21-.21.35,0,.18.09.29.41.32h.03c.41,0,.74-.38.97-.68Z"/>
        <path class="cls-11" d="m226.93,108.26c-.74,0-1.5-.09-1.83-.71-.18-.29-.24-.74-.24-1.24,0-.29.03-.59.06-.94-.68,1.18-1.62,2.33-2.77,2.33h-.06c-1.41-.03-2-1.21-2-2.74,0-2.92,2.12-7.07,5.04-7.07h.03c.77,0,1.38.27,1.74.82l.21-.53c.15-.24.41-.32.77-.32.68,0,1.59.41,1.59.88l-.03.12c-.38.94-2.3,6.01-2.36,8.13,0,.41.03.68.18.68.97-.03,2.83-3.8,3.68-5.66.06-.15.15-.18.27-.18l.15.03c.09.03.15.12.15.24q0,.06-.03.15c-.97,2.09-2.8,5.95-4.18,6.01h-.35Zm-1.27-6.07c.15-.38.41-1.18.41-1.83,0-.41-.12-.74-.44-.82l-.18-.03c-1.33,0-3,4.01-3,5.74,0,.5.15.8.44.8.88-.03,2.47-3.12,2.77-3.86Z"/>
        <path class="cls-11" d="m237.15,108.26c-.74,0-1.5-.09-1.83-.71-.18-.29-.24-.71-.24-1.21,0-.35.03-.74.09-1.15-.18.38-.41.8-.68,1.18-.62,1-1.35,1.86-2.03,1.89h-.38c-.74,0-1.5-.09-1.83-.71-.18-.29-.24-.71-.24-1.21,0-.62.12-1.41.29-2.21.44-2.06,1.5-4.98,1.94-5.92.12-.24.38-.35.74-.35.71,0,1.62.44,1.62.88l-.03.12c-.38.94-2.3,6.01-2.36,8.13,0,.41.03.68.18.68.32,0,.88-.41,1.65-1.65.62-.97,1.3-2.45,2.09-4.6.41-1.33.88-2.56,1.18-3.21.09-.24.38-.35.74-.35.71,0,1.62.41,1.62.88l-.03.12c-.38.94-2.3,6.01-2.36,8.13,0,.41.03.68.21.68.38-.03.91-.65,1.47-1.5.82-1.27,1.68-3.06,2.18-4.15.06-.15.18-.18.27-.18.03,0,.09,0,.15.03.09.06.15.15.15.24,0,.06,0,.09-.03.15-.56,1.21-1.41,3.03-2.3,4.36-.65.94-1.3,1.62-1.86,1.65h-.38Z"/>
        <path class="cls-11" d="m245.25,108.26c-.71,0-1.74-.03-2.09-.71-.15-.29-.24-.71-.24-1.18,0-2.21,1.47-5.86,2-7.45-.38.03-.91.18-1.41.18-.15,0-.32,0-.47-.06-.44,1.15-.71,1.74-1.38,3.21-.03.09-.15.18-.24.18-.06,0-.09,0-.15-.03-.09-.03-.18-.09-.18-.27,0-.03,0-.06.03-.12.71-1.56.91-2.03,1.41-3.24-.26-.21-.38-.5-.38-.82,0-.41.15-.85.29-1.24.09-.24.41-.32.71-.32.35,0,.74.12.74.35l-.03.09c-.12.41-.35,1.09-.44,1.3.8-.03,1.47-.26,2.09-.26.74,0,1.47.56,1.59,1.33l.03.21c0,.47-.24,1.09-.56,2.03-.47,1.33-1.41,3.95-1.41,5.42l.06.5c.06.27.18.35.32.35.38,0,.94-.68,1.09-.91.56-.82,1.3-2.3,2.42-4.77.06-.12.15-.18.24-.18s.15.03.21.06c.06.03.12.12.12.24,0,.03,0,.06-.03.12-1.12,2.5-1.86,4.01-2.44,4.86-.65.94-1.06,1.15-1.59,1.15h-.29Z"/>
        <path class="cls-11" d="m251.85,108.26c-2.5-.09-3.42-1.56-3.42-3.42,0-.91.21-1.89.56-2.83.71-1.89,2.27-4.15,4.42-4.15h.12c1.12.03,2.03.59,2.03,1.71v.06c-.06,2.09-2.21,4.65-3.8,4.65-.29,0-.59-.09-.82-.29-.06.35-.12.74-.12,1.12,0,1.12.32,2.27,1.3,2.47l.32.03c.18,0,.41-.03.65-.09,1.03-.38,2.5-1.65,4.36-5.51.06-.12.15-.18.24-.18.06,0,.12.03.18.06.09.03.15.12.15.24,0,0,0,.06-.03.12-1.97,4.12-3.59,5.45-4.77,5.86-.38.12-.74.15-1.03.15h-.32Zm2.71-8.54c0-.18-.06-.26-.15-.32s-.15-.06-.24-.06c-.68,0-1.62,1.24-1.91,1.65-.44.68-.82,1.44-1.06,2.15.12.09.27.12.41.12,1.27,0,2.95-2.59,2.95-3.53Z"/>
        <path class="cls-11" d="m261.66,106.58c.06-2.15,1.71-6.92,1.74-7.28,0-.09-.03-.15-.09-.15-.09,0-.21.09-.29.18-1.41,1.27-3.42,4.57-3.95,5.48-.35,1.3-.65,2.47-.68,3.15,0,.27-.15.29-.38.29h-.15c-.71,0-1.65-.15-1.68-.82,0-1.5,1.74-7.31,2.47-9.22.09-.24.38-.35.74-.35.71,0,1.68.41,1.68.88l-.03.12c-.24.56-1.21,3.48-1.3,3.71.44-.65.94-1.38,1.47-2.06.88-1.15,2.12-2.65,3.36-2.65.74,0,1.35.44,1.35,1.24l-.03.35c-.41,2.03-1.83,5.98-1.83,7.69,0,.35.03.53.18.53.74-.06,1.27-1.03,3.33-5.66.06-.12.15-.18.24-.18.18,0,.32.12.32.29,0,.03,0,.06-.03.12-2.06,4.68-2.71,5.95-3.83,6.01l-.82.03c-1.06,0-1.8-.24-1.8-1.71Z"/>
        <path class="cls-11" d="m268.7,108.26c-.71,0-1.38-.09-1.65-.71-.15-.32-.24-.8-.24-1.33,0-2.3,1.21-6.13,2.3-9.07-.59-.03-1.15-.03-1.62-.03-.18-.03-.29-.18-.29-.29,0-.15.12-.29.29-.29l1.83.03c.38-1,.74-1.86,1.03-2.5.09-.26.38-.35.74-.35.77,0,1.83.47,1.83.91l-.03.09c-.26.59-.53,1.24-.8,1.94l1.47.03c.18,0,.29.15.29.29s-.12.29-.32.29c-.5-.03-1.06-.03-1.68-.03-.91,2.71-1.91,5.74-2.5,8.25-.06.18-.32,1.38-.32,1.91,0,.21.03.27.12.27.32,0,.88-.71,1.09-.97.91-1.24,1.97-3.42,2.56-4.68.06-.15.15-.18.27-.18.03,0,.09,0,.15.03.09.06.15.15.15.26,0,0,0,.06-.03.12-.62,1.41-1.71,3.59-2.71,4.92-.35.41-.91,1.06-1.47,1.09h-.44Z"/>
        <path class="cls-11" d="m273.97,108.26c-.74,0-1.5-.09-1.83-.71-.18-.29-.27-.77-.27-1.3,0-.62.12-1.35.27-2.12.47-2.21,1.44-4.83,1.89-5.92.12-.24.41-.35.74-.35.71,0,1.62.44,1.62.88l-.03.12c-.24.65-2.3,6.51-2.3,8.31,0,.32.06.5.24.5.97-.03,2.8-3.8,3.62-5.66.06-.15.15-.18.27-.18l.15.03c.09.03.15.12.15.24,0,.06,0,.09-.03.15-.94,2.09-2.74,5.95-4.09,6.01h-.38Zm1.09-12.23c0-.47.35-1.62.53-2,.09-.27.35-.35.68-.35.68,0,1.56.47,1.56.91,0,.06,0,.15-.06.21-.15.27-.56,1.33-.77,1.77-.06.15-.27.21-.5.21-.59,0-1.44-.35-1.44-.74Z"/>
        <path class="cls-11" d="m284.1,108.26c-.71,0-1.38-.09-1.68-.71-.15-.32-.21-.74-.21-1.24,0-.35.03-.77.09-1.18-.74,1.27-1.77,2.56-3,2.56h-.03c-1.41-.03-2-1.21-2-2.74,0-2.92,2.12-7.07,5.04-7.07h.03c.71,0,1.33.21,1.68.71.71-2.06,1.41-3.83,1.71-4.54.12-.24.41-.32.8-.32.8,0,1.83.41,1.83.82v.09c-.32.97-3.56,9.1-3.89,12.14l-.03.65c0,.15.03.24.06.24.24,0,.59-.32.65-.38,1-1.03,2.36-3.77,3.03-5.27.06-.15.15-.18.27-.18l.15.03c.12.06.15.12.15.24,0,.06,0,.09-.03.15-.74,1.62-2,4.27-3.18,5.45-.32.32-.68.56-1,.56h-.41Zm-1.21-6.04c.12-.29.38-1.15.38-1.83,0-.5-.15-.88-.59-.88h-.03c-1.38,0-3.06,4.01-3.06,5.74,0,.47.12.8.44.8.91-.03,2.56-3.06,2.86-3.83Z"/>
        <path class="cls-11" d="m290.96,108.26c-2.5-.09-3.42-1.56-3.42-3.42,0-.91.21-1.89.56-2.83.71-1.89,2.27-4.15,4.42-4.15h.12c1.12.03,2.03.59,2.03,1.71v.06c-.06,2.09-2.21,4.65-3.8,4.65-.29,0-.59-.09-.82-.29-.06.35-.12.74-.12,1.12,0,1.12.32,2.27,1.3,2.47l.32.03c.18,0,.41-.03.65-.09,1.03-.38,2.5-1.65,4.36-5.51.06-.12.15-.18.24-.18.06,0,.12.03.18.06.09.03.15.12.15.24,0,0,0,.06-.03.12-1.97,4.12-3.59,5.45-4.77,5.86-.38.12-.74.15-1.03.15h-.32Zm2.71-8.54c0-.18-.06-.26-.15-.32s-.15-.06-.24-.06c-.68,0-1.62,1.24-1.91,1.65-.44.68-.82,1.44-1.06,2.15.12.09.27.12.41.12,1.27,0,2.95-2.59,2.95-3.53Z"/>
        <path class="cls-11" d="m295.21,105.91c0-.68.24-1.38.68-1.97.15-.21.38-.29.62-.29.68,0,1.53.62,1.53,1,0,.09-.03.15-.12.21-.44.41-.85,1.47-.85,2.09,0,.21.06.38.15.44.06.03.12.06.18.06.18,0,.38-.15.53-.32.41-.53.53-1.27.53-2.09,0-1.41-.35-3.06-.35-4.36,0-.21,0-.41.03-.62l-1.06,2.27c-.06.12-.15.18-.26.18-.15,0-.29-.15-.29-.29,0-.03,0-.09.03-.15.27-.53,1.8-4.15,2.33-4.15h2.21c.18,0,.29.15.29.29,0,.06-.03.12-.06.18-.53.8-.68,1.59-.68,2.39,0,1.24.35,2.47.35,3.74,0,1.94-1.06,3.83-3.21,3.83-1.74,0-2.56-1.15-2.56-2.42Z"/>
      </g>
      <g>
        <path class="cls-7" d="m138.43,109.07h0c-.05.09-.1.18-.16.28.05-.09.11-.18.16-.28Z"/>
        <path class="cls-18" d="m115.65,131.09c.99-.75,1.99-1.48,2.98-2.2-.99.72-1.98,1.45-2.98,2.2-.21.15-.41.31-.62.47.2-.16.41-.31.62-.47Z"/>
        <path class="cls-8" d="m127.5,122.84c-2.94,1.89-5.9,3.9-8.87,6.05,2.97-2.15,5.93-4.17,8.87-6.05Z"/>
        <path class="cls-1" d="m188.72,95.97c-13.18,1.46-29.83,4.26-48.56,9.82-10.5,3.12-21.64,7.1-33.19,12.2-12.94,5.72-24.46,12-34.58,18.31-7.14-1.98-13.73-5.28-19.49-9.63,14.32-7.46,31.77-14.95,52.2-20.69,13.52-3.8,26.34-6.28,38.15-7.84,17.79-2.35,33.29-2.61,45.47-2.17Z"/>
        <path class="cls-3" d="m184.67,97.94c-13.8,3.54-34.77,10.52-57.16,24.9,0,0,0,0,0,0-2.94,1.89-5.9,3.9-8.87,6.05-.99.72-1.98,1.45-2.98,2.2-.21.15-.41.31-.62.47-.2.15-.41.31-.61.47-7.95,4.08-16.95,6.38-26.49,6.38-3.78,0-7.47-.36-11.05-1.05,10.7-6.48,22.83-12.92,36.43-18.78,8.66-3.73,17.06-6.86,25.11-9.5-.05.09-.1.18-.16.28.06-.09.11-.18.16-.28,0,0,0,0,0,0,17.41-5.7,33.17-9.08,46.24-11.13Z"/>
        <path class="cls-2" d="m138.43,109.07h0c-.05.09-.1.18-.16.28.05-.09.11-.18.16-.28Z"/>
        <path class="cls-13" d="m193.39,94.37c-12.67-.82-29.63-1.01-49.43,1.42-14.11,1.73-29.66,4.78-46.11,9.88-17.94,5.56-33.54,12.5-46.73,19.58-6.49-5.32-11.8-12.02-15.5-19.64,14.41-4.59,30.71-8.71,48.73-11.6,22.16-3.56,42.68-4.57,60.93-4.16h0c18.63.42,34.89,2.32,48.12,4.53Z"/>
      </g>
    </g>
  </g>
</svg>