<?xml version="1.0" encoding="UTF-8"?>
<svg id="Calque_2" data-name="Calque 2" xmlns="http://www.w3.org/2000/svg" width="323.3371" height="209.2426" xmlns:xlink="http://www.w3.org/1999/xlink" viewBox="0 0 323.3371 209.2426">
  <defs>
    <style>
      .cls-1 {
        fill: none;
        stroke: #ccc;
        stroke-miterlimit: 10;
        stroke-width: 3px;
      }

      .cls-2 {
        fill: url(#Dégradé_sans_nom);
      }

      .cls-2, .cls-3, .cls-4, .cls-5, .cls-6, .cls-7, .cls-8, .cls-9, .cls-10, .cls-11 {
        stroke-width: 0px;
      }

      .cls-3 {
        fill: url(#Dégradé_sans_nom_8);
      }

      .cls-4 {
        fill: url(#Dégradé_sans_nom_9);
      }

      .cls-5 {
        fill: url(#Dégradé_sans_nom_6);
      }

      .cls-6 {
        fill: url(#Dégradé_sans_nom_7);
      }

      .cls-7 {
        fill: url(#Dégradé_sans_nom_4);
      }

      .cls-8 {
        fill: url(#Dégradé_sans_nom_5);
      }

      .cls-9 {
        fill: url(#Dégradé_sans_nom_2);
      }

      .cls-10 {
        fill: url(#Dégradé_sans_nom_3);
      }

      .cls-12 {
        opacity: .8;
      }

      .cls-11 {
        fill: #f3f3f3;
      }
    </style>
    <linearGradient id="Dégradé_sans_nom" data-name="Dégradé sans nom" x1="0" y1="144.0692" x2="321.6295" y2="144.0692" gradientTransform="translate(0 212) scale(1 -1)" gradientUnits="userSpaceOnUse">
      <stop offset=".1061" stop-color="#4e6ab2"/>
      <stop offset=".198" stop-color="#4e77ba"/>
      <stop offset=".5324" stop-color="#51a3d6"/>
      <stop offset=".7923" stop-color="#52bee8"/>
      <stop offset=".9441" stop-color="#53c9ef"/>
    </linearGradient>
    <linearGradient id="Dégradé_sans_nom_2" data-name="Dégradé sans nom 2" x1="0" y1="143.9655" x2="321.6295" y2="143.9655" gradientTransform="translate(0 212) scale(1 -1)" gradientUnits="userSpaceOnUse">
      <stop offset=".2" stop-color="#f27baa"/>
      <stop offset=".6144" stop-color="#c9547f"/>
      <stop offset="1" stop-color="#a8345c"/>
    </linearGradient>
    <linearGradient id="Dégradé_sans_nom_3" data-name="Dégradé sans nom 3" x1="120.5749" y1="131.8305" x2="310.3818" y2="131.0193" gradientTransform="translate(0 212) scale(1 -1)" gradientUnits="userSpaceOnUse">
      <stop offset=".1654" stop-color="#50c8eb"/>
      <stop offset=".208" stop-color="#4ebfe1"/>
      <stop offset=".4723" stop-color="#448eaa"/>
      <stop offset=".7005" stop-color="#3d6a83"/>
      <stop offset=".8812" stop-color="#39546a"/>
      <stop offset=".992" stop-color="#384c62"/>
    </linearGradient>
    <linearGradient id="Dégradé_sans_nom_4" data-name="Dégradé sans nom 4" x1="120.4386" y1="99.9532" x2="310.2456" y2="99.1421" gradientTransform="translate(0 212) scale(1 -1)" gradientUnits="userSpaceOnUse">
      <stop offset=".1654" stop-color="#50c8eb"/>
      <stop offset=".208" stop-color="#4ebfe1"/>
      <stop offset=".4723" stop-color="#448eaa"/>
      <stop offset=".7005" stop-color="#3d6a83"/>
      <stop offset=".8812" stop-color="#39546a"/>
      <stop offset=".992" stop-color="#384c62"/>
    </linearGradient>
    <linearGradient id="Dégradé_sans_nom_5" data-name="Dégradé sans nom 5" x1="120.459" y1="104.7111" x2="310.266" y2="103.8999" gradientTransform="translate(0 212) scale(1 -1)" gradientUnits="userSpaceOnUse">
      <stop offset=".1654" stop-color="#50c8eb"/>
      <stop offset=".208" stop-color="#4ebfe1"/>
      <stop offset=".4723" stop-color="#448eaa"/>
      <stop offset=".7005" stop-color="#3d6a83"/>
      <stop offset=".8812" stop-color="#39546a"/>
      <stop offset=".992" stop-color="#384c62"/>
    </linearGradient>
    <linearGradient id="Dégradé_sans_nom_6" data-name="Dégradé sans nom 6" x1="120.4925" y1="112.5723" x2="310.2995" y2="111.7612" gradientTransform="translate(0 212) scale(1 -1)" gradientUnits="userSpaceOnUse">
      <stop offset=".1654" stop-color="#50c8eb"/>
      <stop offset=".208" stop-color="#4ebfe1"/>
      <stop offset=".4723" stop-color="#448eaa"/>
      <stop offset=".7005" stop-color="#3d6a83"/>
      <stop offset=".8812" stop-color="#39546a"/>
      <stop offset=".992" stop-color="#384c62"/>
    </linearGradient>
    <linearGradient id="Dégradé_sans_nom_7" data-name="Dégradé sans nom 7" x1="120.4916" y1="112.3445" x2="310.2986" y2="111.5334" gradientTransform="translate(0 212) scale(1 -1)" gradientUnits="userSpaceOnUse">
      <stop offset=".1654" stop-color="#50c8eb"/>
      <stop offset=".208" stop-color="#4ebfe1"/>
      <stop offset=".4723" stop-color="#448eaa"/>
      <stop offset=".7005" stop-color="#3d6a83"/>
      <stop offset=".8812" stop-color="#39546a"/>
      <stop offset=".992" stop-color="#384c62"/>
    </linearGradient>
    <linearGradient id="Dégradé_sans_nom_8" data-name="Dégradé sans nom 8" x1="120.4585" y1="104.6072" x2="310.2655" y2="103.796" gradientTransform="translate(0 212) scale(1 -1)" gradientUnits="userSpaceOnUse">
      <stop offset=".1654" stop-color="#50c8eb"/>
      <stop offset=".208" stop-color="#4ebfe1"/>
      <stop offset=".4723" stop-color="#448eaa"/>
      <stop offset=".7005" stop-color="#3d6a83"/>
      <stop offset=".8812" stop-color="#39546a"/>
      <stop offset=".992" stop-color="#384c62"/>
    </linearGradient>
    <linearGradient id="Dégradé_sans_nom_9" data-name="Dégradé sans nom 9" x1="120.4609" y1="105.168" x2="310.2679" y2="104.3569" gradientTransform="translate(0 212) scale(1 -1)" gradientUnits="userSpaceOnUse">
      <stop offset=".1654" stop-color="#50c8eb"/>
      <stop offset=".208" stop-color="#4ebfe1"/>
      <stop offset=".4723" stop-color="#448eaa"/>
      <stop offset=".7005" stop-color="#3d6a83"/>
      <stop offset=".8812" stop-color="#39546a"/>
      <stop offset=".992" stop-color="#384c62"/>
    </linearGradient>
  </defs>
  <g id="Layer_1" data-name="Layer 1">
    <g>
      <path class="cls-1" d="m164.222,123.4597c-1.6958.172-3.4167.26-5.1582.26-20.6697,0-38.4138-12.4066-46.1997-30.187-2.7105-6.1899-4.2141-13.031-4.2141-20.2268"/>
      <g>
        <path class="cls-1" d="m24.627,73.3059c0,4.1875.191,8.3299.5646,12.4191,6.2573,68.4746,63.7518,122.0176,133.8721,122.0176,41.7094,0,78.9515-18.9444,103.6002-48.7072"/>
        <path class="cls-1" d="m234.2067,163.8486c-20.3724,16.9209-46.5588,27.0895-75.143,27.0895-61.3838,0-111.7097-46.8936-117.1457-106.8489-.322-3.5509-.4864-7.1477-.4864-10.7832"/>
        <path class="cls-1" d="m58.2362,73.3059c0,3.7574.205,7.4664.6044,11.1165,5.5248,50.4902,48.2497,89.711,100.2231,89.711,18.1037,0,35.0853-4.7587,49.7634-13.0948"/>
        <path class="cls-1" d="m188.1782,152.1577c-9.0691,3.3449-18.8764,5.1712-29.1145,5.1712-42.0027,0-76.757-30.739-83.0178-70.9721-.6618-4.2526-1.0052-8.6112-1.0052-13.0508"/>
      </g>
      <path class="cls-1" d="m91.8454,73.3059c0,5.1174.5704,10.1003,1.651,14.8887,6.7653,29.9767,33.5308,52.3297,65.5673,52.3297,5.0722,0,10.0122-.5603,14.7616-1.6225"/>
    </g>
    <g>
      <g class="cls-12">
        <path class="cls-2" d="m0,63.335c3.3503-1.7788,6.7006-2.91,10.0509-3.886,3.3503-.943,6.7006-1.6679,10.0509-2.1735,3.3503-.5166,6.7006-.8235,10.0509-.9829.8376-.0302,1.6752-.0731,2.5127-.0823.8376-.0104,1.6752-.0679,2.5127.0535,1.6752.1998,3.3503.9538,5.0255,1.9977l2.5127,1.6647c.8376.559,1.6752,1.1189,2.5127,1.5701,1.6752.9085,3.3503,1.376,5.0255,1.342,3.3503-.1766,6.7006-.4968,10.0509-1.0988,3.3503-.582,6.7006-1.5102,10.0509-2.744,3.3503-1.233,6.7006-2.7713,10.0509-4.3651,1.6752-.8177,3.3503-1.5552,5.0255-2.5459,1.6752-.9798,3.3503-2.1517,5.0255-3.4921,3.3503-2.6884,6.7006-6.0997,10.0509-9.3309,3.3503-3.2247,6.7006-6.0598,10.0509-7.6686,1.6752-.824,3.3503-1.3922,5.0255-1.6864.8376-.1502,1.6751-.237,2.5127-.265.8376-.0545,1.6752.1424,2.5127.6459.8376.5051,1.6752,1.3012,2.5127,2.4297l.6282.8486c.2094.3082.4188.6591.6282.9866.4188.6165.8376,1.4639,1.2564,2.2207.4188.7887.8376,1.5166,1.2564,2.3552l1.2564,2.5041c.4188.8551.8376,1.6177,1.2564,2.4121.4188.7767.8376,1.6052,1.2564,2.3394.8376,1.428,1.6752,2.7168,2.5127,3.7729l.6282.7417.6282.6545,1.2564,1.1326,2.5127,2.2374,2.5127,2.3469c.8376.7975,1.6752,1.5312,2.5127,2.2982.8376.7788,1.6752,1.4781,2.5127,2.1303,1.6752,1.3045,3.3503,2.2993,5.0255,2.8086,1.6751.5262,3.3503.5842,5.0255.2476.8376-.1812,1.6752-.4202,2.5127-.7755.8376-.2664,1.6751-.9662,2.5127-2.2719,3.3503-4.7039,6.7006-21.1767,10.0509-24.9579,1.6752-2.0679,3.3503-2.3328,5.0255,1.3225l.6282,1.4586c.2094.5421.4188,1.1811.6282,1.767.2094.5553.4188,1.3239.6282,1.9892l.3141,1.0463.3141,1.1499,2.5127,9.1777c.8376,2.9068,1.6752,5.1367,2.5127,6.7143.8376,1.4932,1.6751,2.1154,2.5127,1.9417,1.6752-.1831,3.3503-1.0267,5.0255-2.617.8376-.7703,1.6751-1.7197,2.5127-2.8646l1.2564-1.7505,1.2564-1.9879c.4188-.6333.8376-1.4201,1.2564-2.1512l1.2564-2.2234,2.5127-4.4568c1.6752-3.0767,3.3503-5.7626,5.0255-7.9802,1.6752-2.133,3.3503-3.6725,5.0255-4.4426.8376-.3848,1.6752-.6553,2.5127-.6496.4188.0702.8376.3668,1.2564.9599.4188.5932.8376,1.3329,1.2564,2.4931.8376,2.092,1.6751,5.134,2.5127,8.5607l1.2564,4.9064.6282,2.4187c.2094.7798.4188,1.4144.6282,2.1287l.157.5129.157.4339.3141.8679c.2094.6167.4188,1.0698.6282,1.5216l.3141.5982.3141.4852c.2094.3103.4188.5377.6282.6925.4188.324.8376.3627,1.2564.1449.4188-.2499.8376-.6623,1.2564-1.0639,1.6752-1.6942,3.3503-4.361,5.0255-7.901,1.6752-3.7004,3.3503-8.0598,5.0255-13.0504,1.6752-5.064,3.3503-10.3607,5.0255-15.2196,1.6752-5.1513,3.3503-9.5126,5.0255-13.1185,1.6752-3.4375,3.3503-5.9595,5.0255-7.2762.8376-.6821,1.6752-1.0782,2.5128-1.2324.8376-.1973,1.6751.1301,2.5127,1.0363.8376.9136,1.6751,2.3892,2.5127,4.4568l.6282,1.6539.6282,1.9185c.2094.662.4188,1.2285.6282,1.969l.6282,2.2377c.4188,1.4008.8376,3.204,1.2564,4.8846l1.2563,5.097,2.5127,10.5015.6282,2.455c.2094.8009.4188,1.684.6282,2.3842l.6282,2.2139c.2094.744.4188,1.4983.6282,2.0894l.6282,1.9.3141.95c.1047.3123.2094.5544.3141.835.2094.5484.4188,1.098.6282,1.5496.2094.4749.4188.9789.6282,1.3588,1.6751,3.5003,3.3503,4.2807,5.0255,4.7442,1.6751.3596,3.3503-.2675,5.0255-1.8035,1.6752-1.5189,3.3503-3.9088,5.0255-6.5577,1.6751-2.5916,3.3503-5.375,5.0255-7.5599,1.6751-2.1704,3.3503-3.7061,5.0255-4.3509.8376-.3367,1.6752-.4441,2.5127-.3589.8376.0745,1.6752.4167,2.5128,1.2064.8376.7526,1.6751,1.878,2.5127,3.4134l.6282,1.1562.6282,1.3113c.4188.8305.8376,1.9222,1.2564,2.8932.8376,1.9606,1.6751,4.0596,2.5127,6.1326.4188,1.0534.8376,1.9137,1.2564,2.8801.4188.9093.8376,1.968,1.2563,2.6999l.6282,1.1985.6282,1.0161c.4188.6987.8376,1.2918,1.2563,1.7794.4188.5163.8376.9243,1.2564,1.2675.4188.3747.8376.5781,1.2563.6079.8376.0446,1.6752-.5894,2.5128-2.1924.1047-.1613.2094-.4288.3141-.6479.1047-.2432.2094-.4268.3141-.7246l.3141-.8261.3141-1.0181.3141-1.0253c.1047-.329.2094-.8326.3141-1.2403l.1571-.6455.0785-.3247.0785-.4016.3141-1.6065v34.7234l-.3141-1.6065-.0785-.4016-.0785-.3247-.1571-.6455c-.1047-.4077-.2094-.9113-.3141-1.2403l-.3141-1.0253-.3141-1.0181-.3141-.8261c-.1047-.2979-.2094-.4814-.3141-.7246-.1047-.2191-.2094-.4866-.3141-.6479-.8376-1.603-1.6752-2.237-2.5128-2.1924-.4188.0298-.8376.2332-1.2563.6079-.4188.3432-.8376.7511-1.2564,1.2675-.4188.4876-.8376,1.0807-1.2563,1.7794l-.6282,1.0161-.6282,1.1985c-.4188.7318-.8376,1.7906-1.2563,2.6999-.4188.9664-.8376,1.8266-1.2564,2.8801-.8376,2.073-1.6751,4.1719-2.5127,6.1326-.4188.971-.8376,2.0627-1.2564,2.8932l-.6282,1.3113-.6282,1.1562c-.8376,1.5353-1.6752,2.6608-2.5127,3.4134-.8376.7897-1.6752,1.1319-2.5128,1.2064-.8376.0852-1.6751-.0222-2.5127-.3589-1.6751-.6449-3.3503-2.1806-5.0255-4.351-1.6752-2.1849-3.3503-4.9683-5.0255-7.5599-1.6752-2.6489-3.3503-5.0388-5.0255-6.5577-1.6751-1.5359-3.3503-2.1631-5.0255-1.8035-1.6751.4635-3.3503,1.2439-5.0255,4.7442-.2094.3799-.4188.8839-.6282,1.3588-.2094.4515-.4188,1.0012-.6282,1.5496-.1047.2806-.2094.5227-.3141.835l-.3141.95-.6282,1.9c-.2094.5911-.4188,1.3454-.6282,2.0894l-.6282,2.2139c-.2094.7002-.4188,1.5833-.6282,2.3842l-.6282,2.455-2.5127,10.5015-1.2563,5.097c-.4188,1.6806-.8376,3.4838-1.2564,4.8846l-.6282,2.2376c-.2094.7405-.4188,1.307-.6282,1.9691l-.6282,1.9185-.6282,1.6539c-.8376,2.0676-1.6752,3.5432-2.5127,4.4568-.8376.9062-1.6752,1.2335-2.5127,1.0363-.8376-.1543-1.6752-.5503-2.5128-1.2324-1.6751-1.3167-3.3503-3.8387-5.0255-7.2762-1.6752-3.6059-3.3503-7.9672-5.0255-13.1185-1.6752-4.8589-3.3503-10.1557-5.0255-15.2196-1.6752-4.9907-3.3503-9.3501-5.0255-13.0504-1.6751-3.5399-3.3503-6.2068-5.0255-7.901-.4188-.4016-.8376-.814-1.2564-1.0639-.4188-.2179-.8376-.1791-1.2564.1449-.2094.1548-.4188.3823-.6282.6925l-.3141.4852-.3141.5982c-.2094.4518-.4188.9049-.6282,1.5216l-.3141.8679-.157.4339-.157.5129c-.2094.7143-.4188,1.3489-.6282,2.1287l-.6282,2.4187-1.2564,4.9064c-.8376,3.4267-1.6752,6.4687-2.5127,8.5607-.4188,1.1602-.8376,1.9-1.2564,2.4931-.4188.5932-.8376.8897-1.2564.9599-.8376.0058-1.6752-.2648-2.5127-.6496-1.6752-.7701-3.3503-2.3096-5.0255-4.4426-1.6752-2.2176-3.3503-4.9034-5.0255-7.9802l-2.5127-4.4568-1.2564-2.2234c-.4188-.731-.8376-1.5178-1.2564-2.1512l-1.2564-1.9879-1.2564-1.7505c-.8376-1.1449-1.6752-2.0944-2.5127-2.8646-1.6752-1.5903-3.3503-2.4339-5.0255-2.617-.8376-.1738-1.6752.4484-2.5127,1.9417-.8376,1.5776-1.6752,3.8075-2.5127,6.7143l-2.5127,9.1777-.3141,1.1499-.3141,1.0463c-.2094.6653-.4188,1.4339-.6282,1.9892-.2094.5858-.4188,1.2248-.6282,1.767l-.6282,1.4586c-1.6752,3.6553-3.3503,3.3904-5.0255,1.3225-3.3503-3.7811-6.7006-20.254-10.0509-24.9578-.8376-1.3056-1.6752-2.0054-2.5127-2.2719-.8376-.3553-1.6752-.5943-2.5127-.7755-1.6752-.3366-3.3503-.2787-5.0255.2476-1.6752.5093-3.3503,1.5042-5.0255,2.8086-.8376.6522-1.6752,1.3515-2.5127,2.1303-.8376.767-1.6752,1.5008-2.5127,2.2982l-2.5127,2.3469-2.5127,2.2374-1.2564,1.1326-.6282.6545-.6282.7417c-.8376,1.0561-1.6751,2.3449-2.5127,3.7729-.4188.7343-.8376,1.5627-1.2564,2.3394-.4188.7944-.8376,1.557-1.2564,2.4121l-1.2564,2.5041c-.4188.8386-.8376,1.5665-1.2564,2.3552-.4188.7569-.8376,1.6043-1.2564,2.2207-.2094.3275-.4188.6783-.6282.9866l-.6282.8486c-.8376,1.1285-1.6752,1.9246-2.5127,2.4297-.8376.5035-1.6752.7005-2.5127.6459-.8376-.028-1.6751-.1148-2.5127-.265-1.6752-.2943-3.3503-.8625-5.0255-1.6864-3.3503-1.6088-6.7006-4.4439-10.0509-7.6686-3.3503-3.2312-6.7006-6.6425-10.0509-9.3309-1.6751-1.3405-3.3503-2.5124-5.0255-3.4921-1.6751-.9907-3.3503-1.7282-5.0255-2.5459-3.3503-1.5938-6.7006-3.1321-10.0509-4.3651-3.3503-1.2338-6.7006-2.162-10.0509-2.744-3.3503-.602-6.7006-.9222-10.0509-1.0988-1.6752-.034-3.3503.4335-5.0255,1.342-.8376.4512-1.6752,1.0111-2.5127,1.5701l-2.5127,1.6647c-1.6752,1.0439-3.3503,1.7979-5.0255,1.9977-.8376.1214-1.6752.0638-2.5127.0535-.8376-.0092-1.6752-.052-2.5127-.0823-3.3503-.1595-6.7006-.4664-10.0509-.9829-3.3503-.5056-6.7006-1.2305-10.0509-2.1735C6.7006,75.4365,3.3503,74.3054,0,72.5265,0,72.5265,0,63.335,0,63.335Z"/>
      </g>
      <g class="cls-12">
        <path class="cls-9" d="m0,66.5664c1.6752-1.3543,3.3503-2.0116,5.0255-2.5128,1.6752-.4523,3.3503-.6672,5.0255-.6264,1.6752.0404,3.3503.3936,5.0255.8743,1.6752.4881,3.3503,1.0305,5.0255,1.259,3.3503.4626,6.7006-.421,10.0509-2.2433,3.3503-1.7974,6.7006-4.6336,10.0509-6.0475,1.6752-.7244,3.3503-1.1211,5.0255-1.2158,1.6752-.1143,3.3503.1924,5.0255,1.0418,3.3503,1.6317,6.7006,5.6176,10.0509,7.3326.8376.4504,1.6752.7925,2.5127,1.0222.8376.2219,1.6751.3464,2.5127.5224,1.6752.3383,3.3503.6381,5.0255.8673,3.3503.4514,6.7006.5956,10.0509.1794,3.3503-.3905,6.7006-1.1984,10.0509-2.1946,3.3503-.9884,6.7006-2.4139,10.0509-4.2819,3.3503-1.8801,6.7006-4.1741,10.0509-6.3589,1.6752-1.0854,3.3503-2.1884,5.0255-3.1884l2.5127-1.5432c.8376-.5353,1.6752-1.2662,2.5127-2.0582,1.6752-1.6532,3.3503-3.7903,5.0255-5.36,1.6751-1.5803,3.3503-2.2908,5.0255-1.964,3.3503.9067,6.7006,3.2495,10.0509,6.5415,3.3503,3.2877,6.7006,7.6923,10.0509,11.5593.8376.946,1.6751,1.89,2.5127,2.7603.8376.8167,1.6752,1.7118,2.5127,2.4184,1.6752,1.4828,3.3503,2.5923,5.0255,3.3885,1.6752.7817,3.3503,1.1975,5.0255,1.2801,1.6752.1342,3.3503-.3427,5.0255-1.6268,1.6752-1.2892,3.3503-3.2766,5.0255-5.8798.4188-.5867.8376-1.3239,1.2564-2.0141l1.2564-2.0924,2.5127-4.2302c1.6752-2.9415,3.3503-5.4015,5.0255-7.3744,1.6752-1.8961,3.3503-3.1566,5.0255-3.6688.4188-.1156.8376-.2336,1.2564-.2544.4188-.0139.8376.0871,1.2564.298.8376.413,1.6752,1.3109,2.5127,2.6233,1.6752,2.5248,3.3503,7.097,5.0255,10.7192.4188.9448.8376,1.9286,1.2564,2.6808.4188.8254.8376,1.5845,1.2564,2.1725.8376,1.247,1.6752,2.0122,2.5127,2.2902.8376.2436,1.6752.117,2.5127-.7044.4188-.4499.8376-1.189,1.2564-2.179l.6282-1.6529c.2094-.6293.4188-1.3847.6282-2.0709,1.6752-6.1053,3.3503-15.8561,5.0255-22.6525l.6282-2.3105.6282-1.8815c.4188-1.1747.8376-2.0378,1.2564-2.6321.8376-1.2126,1.6752-1.1196,2.5127-.5318.4188.3187.8376.7699,1.2564,1.4628.4188.6139.8376,1.5026,1.2564,2.5371.8376,1.8937,1.6751,4.6582,2.5127,7.6549l2.5127,9.4373c.4188,1.5596.8376,3.2072,1.2564,4.5399l.3141,1.0538.157.525.157.4565.6282,1.8259.1571.4485.157.3689.3141.7379.3141.7379c.1047.2574.2094.4907.3141.6698l.3141.5903c.1047.1897.2094.331.3141.4989.2094.3357.4188.6238.6282.8472.8376.9571,1.6752,1.1148,2.5127.776,1.6752-.6409,3.3503-3.2456,5.0255-7.7743,3.3503-9.0163,6.7006-23.7329,10.0509-28.1678.8376-1.1889,1.6752-1.9065,2.5128-2.1353.8376-.1901,1.6751-.1752,2.5127.0247,1.6751.3811,3.3503,1.5878,5.0255,3.5287,3.3503,3.8722,6.7006,10.9999,10.0509,16.8858.4188.7705.8376,1.4068,1.2563,2.1037l.6282,1.026c.2094.3251.4188.61.6282.9171.8376,1.2287,1.6751,2.4056,2.5127,3.3029,1.6751,1.8875,3.3503,3.161,5.0255,3.7249,1.6752.5296,3.3503.0953,5.0255-1.1577,1.6751-1.2565,3.3503-3.1456,5.0255-4.7382,1.6751-1.594,3.3503-2.6525,5.0255-2.7993,1.6752-.1543,3.3503.5011,5.0255,1.8249,3.3503,2.5703,6.7006,8.834,10.0509,11.8257,3.3503,2.3645,6.7006,6.2586,10.0509-7.9333v34.7234c-3.3503-14.1919-6.7006-10.2978-10.0509-7.9333-3.3503,2.9917-6.7006,9.2554-10.0509,11.8257-1.6752,1.3238-3.3503,1.9792-5.0255,1.8249-1.6751-.1468-3.3503-1.2054-5.0255-2.7993-1.6752-1.5925-3.3503-3.4816-5.0255-4.7382-1.6752-1.253-3.3503-1.6873-5.0255-1.1577-1.6751.5638-3.3503,1.8374-5.0255,3.7249-.8376.8973-1.6751,2.0742-2.5127,3.3029-.2094.307-.4188.5919-.6282.9171l-.6282,1.026c-.4188.6969-.8376,1.3332-1.2563,2.1037-3.3503,5.886-6.7006,13.0136-10.0509,16.8858-1.6751,1.9408-3.3503,3.1476-5.0255,3.5287-.8376.1999-1.6752.2148-2.5127.0247-.8376-.2288-1.6752-.9464-2.5128-2.1353-3.3503-4.4349-6.7006-19.1515-10.0509-28.1678-1.6752-4.5287-3.3503-7.1334-5.0255-7.7743-.8376-.3389-1.6752-.1811-2.5127.776-.2094.2234-.4188.5115-.6282.8472-.1047.1679-.2094.3092-.3141.4989l-.3141.5903c-.1047.179-.2094.4124-.3141.6698l-.3141.7379-.3141.7379-.157.3689-.1571.4485-.6282,1.8259-.157.4565-.157.525-.3141,1.0538c-.4188,1.3328-.8376,2.9804-1.2564,4.5399l-2.5127,9.4373c-.8376,2.9967-1.6752,5.7612-2.5127,7.6549-.4188,1.0345-.8376,1.9232-1.2564,2.5371-.4188.6929-.8376,1.144-1.2564,1.4627-.8376.5878-1.6752.6807-2.5127-.5318-.4188-.5943-.8376-1.4574-1.2564-2.6321l-.6282-1.8815-.6282-2.3105c-1.6752-6.7964-3.3503-16.5472-5.0255-22.6525-.2094-.6862-.4188-1.4416-.6282-2.0708l-.6282-1.6529c-.4188-.9899-.8376-1.7291-1.2564-2.179-.8376-.8215-1.6752-.948-2.5127-.7044-.8376.278-1.6752,1.0432-2.5127,2.2902-.4188.588-.8376,1.347-1.2564,2.1725-.4188.7522-.8376,1.7361-1.2564,2.6808-1.6752,3.6222-3.3503,8.1944-5.0255,10.7192-.8376,1.3123-1.6752,2.2103-2.5127,2.6233-.4188.2108-.8376.3118-1.2564.298-.4188-.0208-.8376-.1388-1.2564-.2544-1.6752-.5122-3.3503-1.7727-5.0255-3.6688-1.6752-1.9729-3.3503-4.433-5.0255-7.3744l-2.5127-4.2302-1.2564-2.0924c-.4188-.6902-.8376-1.4274-1.2564-2.0141-1.6752-2.6032-3.3503-4.5906-5.0255-5.8798-1.6752-1.2841-3.3503-1.761-5.0255-1.6268-1.6751.0826-3.3503.4984-5.0255,1.2801-1.6752.7961-3.3503,1.9056-5.0255,3.3885-.8376.7066-1.6752,1.6017-2.5127,2.4184-.8376.8703-1.6752,1.8143-2.5127,2.7603-3.3503,3.867-6.7006,8.2716-10.0509,11.5593-3.3503,3.2921-6.7006,5.6348-10.0509,6.5415-1.6752.3268-3.3503-.3837-5.0255-1.964-1.6752-1.5697-3.3503-3.7068-5.0255-5.36-.8376-.7919-1.6752-1.5229-2.5127-2.0582l-2.5127-1.5432c-1.6752-.9999-3.3503-2.103-5.0255-3.1883-3.3503-2.1849-6.7006-4.4789-10.0509-6.3589-3.3503-1.868-6.7006-3.2936-10.0509-4.2819-3.3503-.9962-6.7006-1.8041-10.0509-2.1946-3.3503-.4162-6.7006-.272-10.0509.1794-1.6752.2292-3.3503.529-5.0255.8673-.8376.1759-1.6751.3005-2.5127.5223-.8376.2297-1.6752.5719-2.5127,1.0222-3.3503,1.715-6.7006,5.7009-10.0509,7.3326-1.6752.8494-3.3503,1.1561-5.0255,1.0418-1.6752-.0946-3.3503-.4913-5.0255-1.2158-3.3503-1.4139-6.7006-4.2501-10.0509-6.0475-3.3503-1.8222-6.7006-2.7059-10.0509-2.2433-1.6752.2285-3.3503.7709-5.0255,1.259-1.6752.4808-3.3503.8339-5.0255.8744-1.6752.0408-3.3503-.1741-5.0255-.6264C3.3503,71.5141,1.6752,70.8569,0,69.5026,0,69.5026,0,66.5664,0,66.5664Z"/>
      </g>
      <g class="cls-12">
        <path class="cls-11" d="m0,66.4627c3.0188-2.6042,6.3781-3.6679,10.0508-3.9658,3.3787-.2443,6.7193,1.5181,10.051,1.6167,3.3503.0755,6.7006-1.5608,10.0509-4.7332,5.4738-4.8846,11.9166-16.3911,20.1018-11.0085,3.3503,2.3619,6.7006,8.4492,10.0509,11.0338,2.8584,2.3128,6.5967,2.6622,10.0508,3.2199,6.7919.7869,13.5111-1.3421,20.102-2.7995,3.6353-.9883,6.9116-3.7074,10.0509-5.9085,6.7006-5.32,13.4012-3.219,20.1018,1.5468,10.0781,7.6775,16.4278,15.9606,30.1529,11.0038,9.919-3.5132,18.9003-13.8347,30.1527-12.4921,3.3503.6886,6.7006,3.0057,10.0509,3.9019,1.6751.4243,3.3503,1.1138,5.0255,2.0323,1.3736.7284,3.526,1.9167,5.0254,2.1905,6.2424,1.1273,7.0275-3.3176,10.0509-8.7743,1.1996-1.9272,1.9246-3.3152,3.7691-3.3781,3.6587.0405,6.2352,4.9433,8.7947,7.6706,8.3101,9.5532,12.529-9.1214,17.589-12.7839,3.5302-2.7258,7.1846.8562,9.4228,3.5701,3.3895,4.1786,6.5841,10.9084,10.6791,14.1076,2.9705,2.1818,6.6194,2.3987,10.0509,3.2815,6.6898,1.3778,13.383,1.1974,20.1019.2347,3.3811-.6386,6.9429-.5237,10.051-2.2115,3.3503-1.8019,6.7006-5.9883,10.0509-7.337,2.1783-.8605,4.8498-1.2108,6.2818,1.0953,0,0,.3141.4269.3141.4269l.3141.5312c1.5112,2.8251,2.0326,4.6097,3.1411,9.3969-1.1031,4.7891-1.6515,6.5693-3.1411,9.397-.1443.2626-.441.7292-.6283.9581-1.4252,2.3067-4.1103,1.9553-6.2818,1.0953-3.3503-1.3488-6.7006-5.5351-10.0509-7.3369-3.0993-1.6876-6.6744-1.5733-10.0509-2.2119-3.3504-.4567-6.7007-.7674-10.051-.7743-5.0571-.0269-10.1518.8684-15.0764,2.1712-1.8324.4817-3.4572.8407-5.0255,2.1196-4.3946,3.4344-7.513,10.5394-11.3074,14.8398-10.081,11.5826-12.7577-6.4419-18.8454-11.4333-1.6751-1.3721-3.3503-1.53-5.0254-.6325-4.2004,2.1157-7.2671,11.4116-12.5636,9.4776-3.0255-1.9917-5.1042-9.8639-7.5384-11.1425-2.3593-1.343-5.1659-.987-7.538.1933-2.3328,1.1923-5.0864,2.785-7.5382,3.3322-3.3503.8963-6.7006,3.2134-10.0509,3.9017-11.2521,1.343-20.2341-8.9789-30.1528-12.492-7.159-2.5782-13.7618-1.8456-20.1018,3.0291-8.5913,6.5167-19.3435,18.3328-30.1529,9.5212-1.6751-1.164-3.3502-2.4724-5.0254-3.5338-3.1779-2.1929-6.4794-2.7523-10.051-3.539-6.6032-1.6792-13.4605-2.6405-20.1018-.6946-1.8281.47-3.4887.9455-5.0254,2.2797-3.3504,2.5844-6.7007,8.6717-10.051,11.0334-8.2421,5.3699-14.5671-6.0934-20.1019-11.008-3.3503-3.1726-6.7006-4.8089-10.0509-4.7333-3.3312.0985-6.6744,1.861-10.0509,1.6164-1.6751-.0861-3.3503-.457-5.0254-1.042-1.6752-.6408-3.3503-1.4364-5.0255-2.9236v-2.9362h0Z"/>
      </g>
    </g>
    <g>
      <path class="cls-10" d="m250.7332,78.7152c.2799.6426.425,1.3163.425,2.0315,0,.7048-.1451,1.3578-.425,1.9693-.2799.6115-.6632,1.1505-1.1297,1.6065s-1.0261.8292-1.6583,1.0986c-.6324.2799-1.306.4145-2.0314.4145-.6946,0-1.3578-.1347-1.9798-.4145-.6217-.2695-1.1607-.6426-1.6272-1.0986-.4561-.456-.8187-.995-1.0986-1.6065-.2695-.6115-.4042-1.2645-.4042-1.9693,0-.7152.1348-1.3889.4042-2.0315.2799-.6322.6425-1.1712,1.0986-1.6376.4665-.456,1.0055-.8188,1.6272-1.0986.622-.2695,1.2852-.4042,1.9798-.4042.7255,0,1.3991.1347,2.0314.4042.6322.2798,1.1918.6426,1.6583,1.0986.4665.4664.8498,1.0053,1.1297,1.6376Z"/>
      <path class="cls-7" d="m323.3371,90.5516l-18.3246,42.8783c-.2384.57-.5492.995-.9328,1.2956-.3834.2902-.9638.4353-1.7516.4353h-6.0323l6.2914-13.474-13.5983-31.1352h7.0789c.653,0,1.1609.1554,1.5028.456.3525.3109.6116.6633.7877,1.0571l7.1827,17.4332c.2385.57.4457,1.1608.6219,1.7724.1762.6115.3317,1.223.4561,1.8345.1762-.6322.3627-1.2437.5804-1.8345.197-.5908.425-1.192.6634-1.8034l6.7577-17.4022c.1762-.4457.4665-.798.8706-1.0883.4042-.2799.85-.4249,1.3578-.4249h6.4883Z"/>
      <path class="cls-8" d="m138.9305,93.5884c-1.0778-1.1505-2.3838-2.0522-3.9177-2.6948-1.5443-.6426-3.296-.9639-5.2653-.9639-5.4622,0-10.1262,1.7724-13.9922,5.3067l1.4717,2.5911c.2385.4146.5597.767.9537,1.0468.3937.2902.8601.425,1.4094.425.6531,0,1.2541-.1451,1.8034-.456.539-.3006,1.1402-.653,1.7827-1.0261.6427-.3835,1.4097-.7358,2.2803-1.0365.8706-.3109,1.9693-.456,3.2752-.456,1.8138,0,3.1922.5389,4.1458,1.6272.9535,1.0986,1.4303,2.7778,1.4303,5.0372v1.99c-3.8246,0-7.0272.3213-9.608.9846-2.5808.653-4.6433,1.4821-6.198,2.4771-1.5444,1.0054-2.6533,2.1144-3.3271,3.3582-.6632,1.2437-.995,2.4978-.995,3.7623,0,1.5132.2384,2.8399.7151,3.98.4872,1.1401,1.161,2.0937,2.0212,2.8606s1.8967,1.3474,3.099,1.7309,2.5083.57,3.9282.57c1.2023,0,2.3009-.0932,3.2856-.2902.9846-.1969,1.9069-.4872,2.7776-.881.881-.3939,1.7308-.881,2.5497-1.4614s1.6481-1.2541,2.5083-2.0211l.7152,2.3942c.2176.7048.5492,1.1608.9846,1.3993.4352.228,1.0365.342,1.8034.342h3.638v-21.2474c0-1.8967-.2799-3.6483-.8396-5.2341-.5493-1.5961-1.3681-2.9746-2.4357-4.1147Zm-4.6226,21.9625c-.5907.6011-1.1816,1.1297-1.7517,1.5651-.5804.4457-1.1815.8188-1.8034,1.1193-.6219.3006-1.2852.5182-1.9899.6737-.6945.1554-1.4614.228-2.2905.228-1.3578,0-2.4565-.3109-3.2961-.9224-.8395-.6219-1.2645-1.648-1.2645-3.0783,0-.7255.2074-1.3888.6116-2.0107.4041-.6115,1.0883-1.1505,2.0418-1.6169.9638-.4664,2.2387-.8395,3.8245-1.1401,1.5858-.3006,3.5551-.4457,5.9183-.4457v5.628Z"/>
      <path class="cls-5" d="m278.5932,75.9686c1.5547,0,2.9954.2073,4.3325.6218l-.1659,4.0629c-.0414.6323-.342,1.0261-.8913,1.1816-.539.1555-1.1712.2281-1.8968.2281-.9638,0-1.8242.1036-2.5704.3109-.7566.2073-1.3992.57-1.9174,1.0779-.5286.5182-.9225,1.192-1.2023,2.0315-.2695.8499-.4041,1.8864-.4041,3.1301v2.2387h8.7477v5.7627h-8.4885v27.5698h-8.0948v-27.5386l-2.9229-.456c-.6321-.1141-1.14-.3317-1.5236-.653-.3731-.3317-.5701-.7877-.5701-1.3785v-3.3063h5.0165v-2.4978c0-1.9175.2903-3.6484.8707-5.1823.5804-1.5236,1.4095-2.8296,2.4874-3.8971,1.0779-1.0676,2.3943-1.8864,3.949-2.4564,1.5547-.5701,3.3062-.8499,5.2444-.8499h0Z"/>
      <path class="cls-6" d="m218.9762,93.2359c-1.0572-1.0053-2.2493-1.8034-3.5759-2.4046-1.3371-.6011-2.9435-.9017-4.8195-.9017-2.2077,0-4.1977.4457-5.97,1.3267-1.7619.881-3.2855,2.1143-4.5499,3.6898-1.2749,1.5754-2.2389,3.4307-2.9229,5.5658-.6737,2.1455-1.0157,4.4671-1.0157,6.9547,0,2.757.3006,5.203.9016,7.3381.6012,2.1455,1.4512,3.9385,2.5602,5.4,1.0986,1.451,2.4149,2.56,3.9488,3.327,1.5339.7566,3.2131,1.1401,5.0477,1.1401,1.1815,0,2.2802-.1244,3.2959-.3731s1.9693-.6115,2.8503-1.0676c.8811-.456,1.7102-1.0053,2.4772-1.6376.767-.6322,1.4926-1.3474,2.1973-2.1351l.653,3.2545c.3316.9743,1.0157,1.4718,2.0625,1.4718h4.9543v-48.7135h-8.0947v17.7649h0Zm0,20.9779c-1.0572,1.2956-2.1663,2.2906-3.3479,2.985-1.1816.7048-2.6118,1.0468-4.291,1.0468-1.0468,0-2.0003-.1866-2.8503-.57-.8602-.3835-1.5754-1.0054-2.1662-1.8656-.5907-.8603-1.0468-1.9797-1.3577-3.3478-.3214-1.3578-.4769-3.0264-.4769-4.9957,0-1.9485.1866-3.638.5597-5.0683.3627-1.4303.9017-2.6119,1.5857-3.5344.6842-.9328,1.5237-1.6272,2.5186-2.0833.9951-.456,2.104-.684,3.3271-.684,1.2541,0,2.4149.2281,3.4927.684,1.0883.456,2.0833,1.2438,3.0059,2.3632v15.0701h0Z"/>
      <path class="cls-3" d="m176.2016,90.5516h8.0947v33.633h-4.9543c-1.0467,0-1.7309-.4975-2.0625-1.4718l-.5596-2.6948c-.6945.7048-1.4201,1.337-2.1663,1.9174-.7358.5804-1.5339,1.078-2.3735,1.4821-.8395.4042-1.7516.7152-2.7154.9432-.9743.228-2.0212.342-3.1301.342-1.8449,0-3.4619-.3109-4.8714-.9328-1.4096-.6219-2.5911-1.5029-3.5551-2.6326-.9638-1.1401-1.6893-2.4875-2.1868-4.0525-.4871-1.5651-.736-3.2856-.736-5.1615v-21.3718h8.0947v21.3718c0,2.0522.4769,3.6483,1.4305,4.7677.9535,1.1298,2.3735,1.6894,4.2805,1.6894,1.3993,0,2.7053-.3109,3.9282-.9328,1.2231-.6218,2.3839-1.4821,3.4826-2.5704v-24.3256h0Z"/>
      <rect class="cls-4" x="241.8507" y="90.5516" width="8.0948" height="33.633"/>
    </g>
  </g>
</svg>